- 
http://www.Speed.Cd      fast  and The Hottest Private Tracker on the net

   signup is open now

Please Seed back to make the speed Faster!!!

------------------nfo--------------------------


[color=blue][size=5][b]Abduction.2011.HDRip.XviD.AC3.Partial.BluR.SeT-CM8[/b][/size][/color]


[b]CM8 Doing It Right The First Time :D


Sources:Abduction.2011.HDRip.H264.AAC-P2P  Thx

Video: 720x304 @bitrate 1869 Kbps
Audio: English AC-3
Sample: Yes, included[/b]


[url]http://www.imdb.com/title/tt1600195/[/url]


Complete name                    : Abduction.2011.HDRip.H264.AAC-P2P\Abduction.2011.HDRip.XviD.AC3.Partial.BluR.SeT.CM8.avi
Format                           : AVI
Format/Info                      : Audio Video Interleave
File size                        : 1.53 GiB
Duration                         : 1h 45mn
Overall bit rate                 : 2 072 Kbps
Writing library                  : VirtualDub build 30091/release

Video
ID                               : 0
Format                           : MPEG-4 Visual
Format profile                   : Advanced Simple@L5
Format settings, BVOP            : 2
Format settings, QPel            : No
Format settings, GMC             : No warppoints
Format settings, Matrix          : Default (H.263)
Codec ID                         : XVID
Codec ID/Hint                    : XviD
Duration                         : 1h 45mn
Bit rate                         : 1 869 Kbps
Width                            : 720 pixels
Height                           : 304 pixels
Display aspect ratio             : 2.35:1
Frame rate                       : 29.970 fps
Color space                      : YUV
Chroma subsampling               : 4:2:0
Bit depth                        : 8 bits
Scan type                        : Progressive
Compression mode                 : Lossy
Bits/(Pixel*Frame)               : 0.285
Stream size                      : 1.38 GiB (90%)
Writing library                  : XviD 1.2.1 (UTC 2008-12-04)

Audio
ID                               : 1
Format                           : AC-3
Format/Info                      : Audio Coding 3
Mode extension                   : CM (complete main)
Codec ID                         : 2000
Duration                         : 1h 45mn
Bit rate mode                    : Constant
Bit rate                         : 192 Kbps
Channel(s)                       : 2 channels
Channel positions                : Front: L R
Sampling rate                    : 48.0 KHz
Bit depth                        : 16 bits
Compression mode                 : Lossy
Stream size                      : 145 MiB (9%)
Alignment                        : Aligned on interleaves
Interleave, duration             : 33 ms (1.00 video frame)
Interleave, preload duration     : 512 ms


Plot:

A thriller centered on a young man who sets out to uncover the truth about his life 
after finding his baby photo on a missing persons website. 

Cast:

Taylor Lautner  ... Nathan
Alfred Molina   ... Agent Frank Burton
Antonique Smith  ... Agent Sandra Burns
Maria Bello    ...   Mara
Jason Isaacs  ...   Kevin





Notes

ok , here we go.
there is no talking/subs in action scenes so why blur or crop them :)
same as before single blurs, double blurs and no blurs . nearly 400 in all
You might call me a sad Bastard,with to much time on my hands, i say your proberly right lol.
extra filters and Blur Baby Blurrrrrr .
enjoy 

ps. No complaints, But seems a few of you wanted your moms back ;).But i still have a few of them left.
So here's a once in a life time deal, Two for One ofter. Yep you read right . Take your mum back and get an
UnKnOwN Mom totally Free (extra shipping and processing may apply).


shouts

Mr Hive, thanks for all you work. The Legend @ Work

To Friends Unevano, Ted, Simmo

and huge respect goes out to Santi, DTRG and THC for all they do.

and respect to the the past ... Prism & Pukka .. gone but not forgotten


LOOKING FOR ANYTHING YOU WANT TO LOOK AND SOUND BETTER

CM8@hushmail.com